<svg width="1957" height="1980" xmlns="http://www.w3.org/2000/svg" xmlns:xlink="http://www.w3.org/1999/xlink" xml:space="preserve" overflow="hidden"><g transform="translate(-380 -1338)"><g><path d="M383.5 2319C383.5 1780.8 819.799 1344.5 1358 1344.5 1896.2 1344.5 2332.5 1780.8 2332.5 2319 2332.5 2857.2 1896.2 3293.5 1358 3293.5 819.799 3293.5 383.5 2857.2 383.5 2319Z" stroke="#172C51" stroke-width="4.58333" stroke-linecap="butt" stroke-linejoin="miter" stroke-miterlimit="8" stroke-opacity="1" fill="#C55A11" fill-rule="evenodd" fill-opacity="1"/><path d="M849.5 2398C849.5 2084.58 1082.98 1830.5 1371 1830.5 1659.02 1830.5 1892.5 2084.58 1892.5 2398 1892.5 2711.42 1659.02 2965.5 1371 2965.5 1082.98 2965.5 849.5 2711.42 849.5 2398Z" stroke="#172C51" stroke-width="4.58333" stroke-linecap="butt" stroke-linejoin="miter" stroke-miterlimit="8" stroke-opacity="1" fill="#FFFFFF" fill-rule="evenodd" fill-opacity="1"/><path d="M1233 2945.82C1233 2954.01 1289.86 2960.64 1360 2960.64 1430.14 2960.64 1487 2954.01 1487 2945.82L1487 3280.18C1487 3288.36 1430.14 3295 1360 3295 1289.86 3295 1233 3288.36 1233 3280.18Z" fill="#FFFFFF" fill-rule="evenodd" fill-opacity="1"/><path d="M1233 2945.82C1233 2937.64 1289.86 2931 1360 2931 1430.14 2931 1487 2937.64 1487 2945.82 1487 2954.01 1430.14 2960.64 1360 2960.64 1289.86 2960.64 1233 2954.01 1233 2945.82Z" fill="#FFFFFF" fill-rule="evenodd" fill-opacity="1"/><path d="M1233 3280.5 1266.5 3247 1266.5 3263.75 1453.5 3263.75 1453.5 3247 1487 3280.5 1453.5 3314 1453.5 3297.25 1266.5 3297.25 1266.5 3314Z" fill="#000000" fill-rule="evenodd" fill-opacity="1"/><path d="M413 2411.5 446.5 2378 446.5 2394.75 791.5 2394.75 791.5 2378 825 2411.5 791.5 2445 791.5 2428.25 446.5 2428.25 446.5 2445Z" fill="#000000" fill-rule="evenodd" fill-opacity="1"/><path d="M1902 2388 1936 2354 1936 2371 2281 2371 2281 2354 2315 2388 2281 2422 2281 2405 1936 2405 1936 2422Z" fill="#000000" fill-rule="evenodd" fill-opacity="1"/><path d="M1359.5 1372 1393 1405.5 1376.25 1405.5 1376.25 1767.5 1393 1767.5 1359.5 1801 1326 1767.5 1342.75 1767.5 1342.75 1405.5 1326 1405.5Z" fill="#000000" fill-rule="evenodd" fill-opacity="1"/><rect x="1252" y="3014" width="209" height="189" fill="#FFFFFF" fill-opacity="1"/><text fill="#000000" fill-opacity="1" font-family="Calibri,Calibri_MSFontService,sans-serif" font-style="normal" font-variant="normal" font-weight="700" font-stretch="normal" font-size="110" text-anchor="start" direction="ltr" writing-mode="lr-tb" unicode-bidi="normal" text-decoration="none" transform="matrix(1 0 0 1 1323 3146)">A</text><text fill="#000000" fill-opacity="1" font-family="Calibri,Calibri_MSFontService,sans-serif" font-style="normal" font-variant="normal" font-weight="700" font-stretch="normal" font-size="110" text-anchor="start" direction="ltr" writing-mode="lr-tb" unicode-bidi="normal" text-decoration="none" transform="matrix(1 0 0 1 1196.18 1627)">C</text><text fill="#000000" fill-opacity="1" font-family="Calibri,Calibri_MSFontService,sans-serif" font-style="normal" font-variant="normal" font-weight="700" font-stretch="normal" font-size="110" text-anchor="start" direction="ltr" writing-mode="lr-tb" unicode-bidi="normal" text-decoration="none" transform="matrix(1 0 0 1 591.688 2321)">B</text><text fill="#000000" fill-opacity="1" font-family="Calibri,Calibri_MSFontService,sans-serif" font-style="normal" font-variant="normal" font-weight="700" font-stretch="normal" font-size="110" text-anchor="start" direction="ltr" writing-mode="lr-tb" unicode-bidi="normal" text-decoration="none" transform="matrix(1 0 0 1 2073.86 2297)">D</text></g></g></svg>