<svg width="1306" height="1343" xmlns="http://www.w3.org/2000/svg" xmlns:xlink="http://www.w3.org/1999/xlink" xml:space="preserve" overflow="hidden"><defs><filter id="fx0" x="-10%" y="-10%" width="120%" height="120%" filterUnits="userSpaceOnUse" primitiveUnits="userSpaceOnUse"><feComponentTransfer color-interpolation-filters="sRGB"><feFuncR type="discrete" tableValues="0.000000 0.000000"/><feFuncG type="discrete" tableValues="0.000000 0.000000"/><feFuncB type="discrete" tableValues="0.000000 0.000000"/><feFuncA type="linear" slope="0.400000" intercept="0.000000"/></feComponentTransfer><feGaussianBlur stdDeviation="1.764426 1.764426"/></filter><filter id="fx1" x="-10%" y="-10%" width="120%" height="120%" filterUnits="userSpaceOnUse" primitiveUnits="userSpaceOnUse"><feComponentTransfer color-interpolation-filters="sRGB"><feFuncR type="discrete" tableValues="0.000000 0.000000"/><feFuncG type="discrete" tableValues="0.000000 0.000000"/><feFuncB type="discrete" tableValues="0.000000 0.000000"/><feFuncA type="linear" slope="0.400000" intercept="0.000000"/></feComponentTransfer><feGaussianBlur stdDeviation="1.764426 1.764426"/></filter><filter id="fx2" x="-10%" y="-10%" width="120%" height="120%" filterUnits="userSpaceOnUse" primitiveUnits="userSpaceOnUse"><feComponentTransfer color-interpolation-filters="sRGB"><feFuncR type="discrete" tableValues="0.000000 0.000000"/><feFuncG type="discrete" tableValues="0.000000 0.000000"/><feFuncB type="discrete" tableValues="0.000000 0.000000"/><feFuncA type="linear" slope="0.400000" intercept="0.000000"/></feComponentTransfer><feGaussianBlur stdDeviation="1.764426 1.764426"/></filter></defs><g transform="translate(-499 -380)"><g><path d="M503.5 1035C503.5 676.291 794.291 385.5 1153 385.5 1511.71 385.5 1802.5 676.291 1802.5 1035 1802.5 1393.71 1511.71 1684.5 1153 1684.5 794.291 1684.5 503.5 1393.71 503.5 1035Z" stroke="#172C51" stroke-width="4.58333" stroke-linecap="butt" stroke-linejoin="miter" stroke-miterlimit="8" stroke-opacity="1" fill="#C55A11" fill-rule="evenodd" fill-opacity="1"/><path d="M1454.5 1380.5C1454.5 1467.21 1330.71 1537.5 1178 1537.5 1025.29 1537.5 901.5 1467.21 901.5 1380.5 1066.38 1448.5 1289.62 1448.5 1454.5 1380.5Z" stroke="#172C51" stroke-width="4.58333" stroke-linecap="butt" stroke-linejoin="miter" stroke-miterlimit="8" stroke-opacity="1" fill="#FFFFFF" fill-rule="evenodd" fill-opacity="1"/><path d="M929 1353.5 901.5 1326 929 1298.5 929 1312.25 1427 1312.25 1427 1298.5 1454.5 1326 1427 1353.5 1427 1339.75 929 1339.75Z" stroke="#172C51" stroke-width="4.58333" stroke-linecap="butt" stroke-linejoin="miter" stroke-miterlimit="8" stroke-opacity="1" fill="#000000" fill-rule="evenodd" fill-opacity="1"/><path d="M1140.5 1565 1168 1537.5 1195.5 1565 1181.75 1565 1181.75 1657 1195.5 1657 1168 1684.5 1140.5 1657 1154.25 1657 1154.25 1565Z" stroke="#172C51" stroke-width="4.58333" stroke-linecap="butt" stroke-linejoin="miter" stroke-miterlimit="8" stroke-opacity="1" fill="#000000" fill-rule="evenodd" fill-opacity="1"/><path d="M822.5 1415 850 1387.5 877.5 1415 863.75 1415 863.75 1508 877.5 1508 850 1535.5 822.5 1508 836.25 1508 836.25 1415Z" stroke="#172C51" stroke-width="4.58333" stroke-linecap="butt" stroke-linejoin="miter" stroke-miterlimit="8" stroke-opacity="1" fill="#000000" fill-rule="evenodd" fill-opacity="1"/><g filter="url(#fx0)" transform="translate(1087 1161)"><g><g><path d="M46.2417-2.47217C46.4578-1.87777 46.5727-1.39819 46.5862-1.03345 46.5997-0.668701 46.4984-0.391764 46.2822-0.202637 46.0661-0.0135091 45.7081 0.108073 45.2082 0.162109 44.7084 0.216146 44.0397 0.243164 43.2021 0.243164 42.3646 0.243164 41.6959 0.2229 41.196 0.182373 40.6962 0.141846 40.3179 0.0743001 40.0613-0.0202637 39.8046-0.114827 39.6155-0.243164 39.4939-0.405273 39.3723-0.567383 39.2575-0.770019 39.1494-1.01318L34.6509-13.7793 12.8472-13.7793 8.55127-1.17529C8.47021-0.932129 8.36214-0.722738 8.22705-0.547119 8.09196-0.371501 7.89608-0.2229 7.6394-0.101318 7.38273 0.0202637 7.01798 0.108073 6.54517 0.162109 6.07235 0.216146 5.45768 0.243164 4.70117 0.243164 3.91764 0.243164 3.27596 0.209391 2.77612 0.141846 2.27629 0.0743001 1.92505-0.0540365 1.72241-0.243164 1.51978-0.432292 1.42521-0.709228 1.43872-1.07397 1.45223-1.43872 1.56706-1.91829 1.7832-2.5127L19.3721-51.2266C19.4801-51.5238 19.622-51.7669 19.7976-51.9561 19.9732-52.1452 20.2299-52.2938 20.5676-52.4019 20.9054-52.5099 21.3376-52.5842 21.8645-52.6248 22.3914-52.6653 23.0601-52.6855 23.8706-52.6855 24.7352-52.6855 25.4512-52.6653 26.0186-52.6248 26.5859-52.5842 27.0452-52.5099 27.3965-52.4019 27.7477-52.2938 28.0179-52.1384 28.207-51.9358 28.3962-51.7331 28.5448-51.4832 28.6528-51.186ZM23.668-45.4717 23.6274-45.4717 14.5898-19.3315 32.8271-19.3315Z" fill="#000000" fill-rule="nonzero" fill-opacity="1" transform="matrix(1 0 0 1 57.0439 111)"/></g></g></g><text fill="#000000" fill-opacity="1" font-family="Calibri,Calibri_MSFontService,sans-serif" font-style="normal" font-variant="normal" font-weight="400" font-stretch="normal" font-size="83" text-anchor="start" direction="ltr" writing-mode="lr-tb" unicode-bidi="normal" text-decoration="none" transform="matrix(1 0 0 1 1142.08 1270)">A</text><g filter="url(#fx1)" transform="translate(1170 1530)"><g><g><path d="M36.1504-2.87744C36.1504-2.39111 36.1234-1.96558 36.0693-1.60083 36.0153-1.23608 35.9207-0.932129 35.7856-0.688965 35.6506-0.445801 35.4952-0.270182 35.3196-0.162109 35.144-0.0540365 34.9481 0 34.7319 0L9.56445 0C8.94303 0 8.35539-0.209391 7.80151-0.628174 7.24764-1.04696 6.9707-1.7832 6.9707-2.83691L6.9707-49.6055C6.9707-50.6592 7.24764-51.3954 7.80151-51.8142 8.35539-52.233 8.94303-52.4424 9.56445-52.4424L34.4482-52.4424C34.6644-52.4424 34.8603-52.3883 35.0359-52.2803 35.2115-52.1722 35.3533-51.9966 35.4614-51.7534 35.5695-51.5102 35.6573-51.2063 35.7248-50.8415 35.7924-50.4768 35.8262-50.0242 35.8262-49.4839 35.8262-48.9976 35.7924-48.572 35.7248-48.2073 35.6573-47.8425 35.5695-47.5453 35.4614-47.3157 35.3533-47.086 35.2115-46.9171 35.0359-46.8091 34.8603-46.701 34.6644-46.647 34.4482-46.647L13.9414-46.647 13.9414-30.1929 31.5303-30.1929C31.7464-30.1929 31.9423-30.1321 32.1179-30.0105 32.2935-29.8889 32.4421-29.72 32.5637-29.5039 32.6853-29.2878 32.7731-28.9906 32.8271-28.6123 32.8812-28.234 32.9082-27.7882 32.9082-27.2749 32.9082-26.7886 32.8812-26.3698 32.8271-26.0186 32.7731-25.6673 32.6853-25.3836 32.5637-25.1675 32.4421-24.9513 32.2935-24.796 32.1179-24.7014 31.9423-24.6068 31.7464-24.5596 31.5303-24.5596L13.9414-24.5596 13.9414-5.79541 34.7319-5.79541C34.9481-5.79541 35.144-5.74137 35.3196-5.6333 35.4952-5.52523 35.6506-5.35636 35.7856-5.12671 35.9207-4.89705 36.0153-4.59985 36.0693-4.23511 36.1234-3.87036 36.1504-3.41781 36.1504-2.87744Z" fill="#000000" fill-rule="nonzero" fill-opacity="1" transform="matrix(1 0 0 1 57.0925 112)"/></g></g></g><text fill="#000000" fill-opacity="1" font-family="Calibri,Calibri_MSFontService,sans-serif" font-style="normal" font-variant="normal" font-weight="400" font-stretch="normal" font-size="83" text-anchor="start" direction="ltr" writing-mode="lr-tb" unicode-bidi="normal" text-decoration="none" transform="matrix(1 0 0 1 1225.13 1640)">E</text><g filter="url(#fx2)" transform="translate(692 1361)"><g><g><path d="M41.5405-15.0356C41.5405-13.3875 41.3311-11.8678 40.9123-10.4763 40.4936-9.08488 39.9059-7.83529 39.1494-6.72754 38.3929-5.61979 37.481-4.64713 36.4138-3.80957 35.3466-2.972 34.1443-2.26953 32.8069-1.70215 31.4695-1.13477 30.0375-0.709228 28.511-0.425537 26.9845-0.141846 25.235 0 23.2627 0L9.56445 0C8.94303 0 8.35539-0.209391 7.80151-0.628174 7.24764-1.04696 6.9707-1.7832 6.9707-2.83691L6.9707-49.6055C6.9707-50.6592 7.24764-51.3954 7.80151-51.8142 8.35539-52.233 8.94303-52.4424 9.56445-52.4424L21.4795-52.4424C24.6136-52.4424 27.1803-52.1452 29.1797-51.5508 31.179-50.9564 32.8474-50.0918 34.1848-48.957 35.5222-47.8223 36.5286-46.4308 37.2041-44.7827 37.8796-43.1346 38.2173-41.2703 38.2173-39.1899 38.2173-37.9471 38.0687-36.7583 37.7715-35.6235 37.4743-34.4888 37.0352-33.4418 36.4543-32.4827 35.8735-31.5235 35.144-30.6657 34.2659-29.9092 33.3878-29.1527 32.3813-28.5312 31.2466-28.0449 32.6785-27.7747 34.0159-27.2817 35.2588-26.5657 36.5016-25.8497 37.5891-24.9378 38.5212-23.8301 39.4534-22.7223 40.1896-21.4255 40.73-19.9395 41.2703-18.4534 41.5405-16.8188 41.5405-15.0356ZM31.0439-38.501C31.0439-39.7708 30.8687-40.9191 30.5184-41.9458 30.168-42.9725 29.6154-43.8438 28.8605-44.5598 28.1057-45.2758 27.1219-45.8229 25.909-46.2012 24.6961-46.5794 23.0924-46.7685 21.0976-46.7686L13.9009-46.7686 13.9009-29.7876 21.8252-29.7876C23.6312-29.7876 25.0868-30.024 26.1921-30.4968 27.2973-30.9696 28.2138-31.6046 28.9416-32.4016 29.6694-33.1986 30.2017-34.1308 30.5386-35.198 30.8755-36.2652 31.0439-37.3662 31.0439-38.501ZM34.2051-14.6304C34.2051-16.1974 33.9557-17.5754 33.4569-18.7642 32.9581-19.953 32.2301-20.9526 31.2729-21.7632 30.3156-22.5737 29.1156-23.1884 27.6729-23.6072 26.2302-24.026 24.4169-24.2353 22.233-24.2353L13.9009-24.2353 13.9009-5.75488 24.0124-5.75488C25.6036-5.75488 26.9923-5.94401 28.1785-6.32227 29.3648-6.70052 30.4096-7.26115 31.3131-8.00415 32.2165-8.74715 32.9243-9.67253 33.4366-10.7803 33.9489-11.888 34.2051-13.1714 34.2051-14.6304Z" fill="#000000" fill-rule="nonzero" fill-opacity="1" transform="matrix(1 0 0 1 57.3946 112)"/></g></g></g><text fill="#000000" fill-opacity="1" font-family="Calibri,Calibri_MSFontService,sans-serif" font-style="normal" font-variant="normal" font-weight="400" font-stretch="normal" font-size="83" text-anchor="start" direction="ltr" writing-mode="lr-tb" unicode-bidi="normal" text-decoration="none" transform="matrix(1 0 0 1 747.434 1471)">B</text></g></g></svg>