<svg width="1311" height="1311" xmlns="http://www.w3.org/2000/svg" xmlns:xlink="http://www.w3.org/1999/xlink" xml:space="preserve" overflow="hidden"><g transform="translate(-682 -572)"><g><path d="M688.5 1228C688.5 869.291 979.291 578.5 1338 578.5 1696.71 578.5 1987.5 869.291 1987.5 1228 1987.5 1586.71 1696.71 1877.5 1338 1877.5 979.291 1877.5 688.5 1586.71 688.5 1228Z" stroke="#172C51" stroke-width="4.58333" stroke-linecap="butt" stroke-linejoin="miter" stroke-miterlimit="8" stroke-opacity="1" fill="#C55A11" fill-rule="evenodd" fill-opacity="1"/><path d="M1014.5 1383.5C1014.5 1236.04 1169.19 1116.5 1360 1116.5 1550.81 1116.5 1705.5 1236.04 1705.5 1383.5 1705.5 1530.96 1550.81 1650.5 1360 1650.5 1169.19 1650.5 1014.5 1530.96 1014.5 1383.5Z" stroke="#172C51" stroke-width="4.58333" stroke-linecap="butt" stroke-linejoin="miter" stroke-miterlimit="8" stroke-opacity="1" fill="#FFFFFF" fill-rule="evenodd" fill-opacity="1"/><text fill="#000000" fill-opacity="1" font-family="Calibri,Calibri_MSFontService,sans-serif" font-style="normal" font-variant="normal" font-weight="400" font-stretch="normal" font-size="83" text-anchor="start" direction="ltr" writing-mode="lr-tb" unicode-bidi="normal" text-decoration="none" transform="matrix(1 0 0 1 1816.57 1310)">D</text><text fill="#000000" fill-opacity="1" font-family="Calibri,Calibri_MSFontService,sans-serif" font-style="normal" font-variant="normal" font-weight="400" font-stretch="normal" font-size="83" text-anchor="start" direction="ltr" writing-mode="lr-tb" unicode-bidi="normal" text-decoration="none" transform="matrix(1 0 0 1 842.286 1353)">B</text><text fill="#000000" fill-opacity="1" font-family="Calibri,Calibri_MSFontService,sans-serif" font-style="normal" font-variant="normal" font-weight="400" font-stretch="normal" font-size="83" text-anchor="start" direction="ltr" writing-mode="lr-tb" unicode-bidi="normal" text-decoration="none" transform="matrix(1 0 0 1 1246.93 866)">C</text><rect x="1190" y="1697" width="131" height="117" fill="#FFFFFF" fill-opacity="0"/><text fill="#000000" fill-opacity="1" font-family="Calibri,Calibri_MSFontService,sans-serif" font-style="normal" font-variant="normal" font-weight="400" font-stretch="normal" font-size="83" text-anchor="start" direction="ltr" writing-mode="lr-tb" unicode-bidi="normal" text-decoration="none" transform="matrix(1 0 0 1 1223.36 1801)">A</text><path d="M1321.5 1688 1347 1662.5 1372.5 1688 1359.75 1688 1359.75 1849 1372.5 1849 1347 1874.5 1321.5 1849 1334.25 1849 1334.25 1688Z" stroke="#172C51" stroke-width="4.58333" stroke-linecap="butt" stroke-linejoin="miter" stroke-miterlimit="8" stroke-opacity="1" fill="#000000" fill-rule="evenodd" fill-opacity="1"/><path d="M960.5 1381.5 986.5 1407.5 960.5 1433.5 960.5 1420.5 762.5 1420.5 762.5 1433.5 736.5 1407.5 762.5 1381.5 762.5 1394.5 960.5 1394.5Z" stroke="#172C51" stroke-width="4.58333" stroke-linecap="butt" stroke-linejoin="miter" stroke-miterlimit="8" stroke-opacity="1" fill="#000000" fill-rule="evenodd" fill-opacity="1"/><path d="M1340.5 624.5 1366.5 598.5 1392.5 624.5 1379.5 624.5 1379.5 1071.5 1392.5 1071.5 1366.5 1097.5 1340.5 1071.5 1353.5 1071.5 1353.5 624.5Z" stroke="#172C51" stroke-width="4.58333" stroke-linecap="butt" stroke-linejoin="miter" stroke-miterlimit="8" stroke-opacity="1" fill="#000000" fill-rule="evenodd" fill-opacity="1"/><path d="M1928 1331.5 1953.5 1357 1928 1382.5 1928 1369.75 1747 1369.75 1747 1382.5 1721.5 1357 1747 1331.5 1747 1344.25 1928 1344.25Z" stroke="#172C51" stroke-width="4.58333" stroke-linecap="butt" stroke-linejoin="miter" stroke-miterlimit="8" stroke-opacity="1" fill="#000000" fill-rule="evenodd" fill-opacity="1"/></g></g></svg>