<svg width="1306" height="1338" xmlns="http://www.w3.org/2000/svg" xmlns:xlink="http://www.w3.org/1999/xlink" xml:space="preserve" overflow="hidden"><g transform="translate(-669 -554)"><g><path d="M672.5 1208C672.5 849.291 963.515 558.5 1322.5 558.5 1681.48 558.5 1972.5 849.291 1972.5 1208 1972.5 1566.71 1681.48 1857.5 1322.5 1857.5 963.515 1857.5 672.5 1566.71 672.5 1208Z" stroke="#172C51" stroke-width="4.58333" stroke-linecap="butt" stroke-linejoin="miter" stroke-miterlimit="8" stroke-opacity="1" fill="#AFABAB" fill-rule="evenodd" fill-opacity="1"/><path d="M841.5 1238C841.5 979.807 1057.75 770.5 1324.5 770.5 1591.25 770.5 1807.5 979.807 1807.5 1238 1807.5 1496.19 1591.25 1705.5 1324.5 1705.5 1057.75 1705.5 841.5 1496.19 841.5 1238Z" stroke="#172C51" stroke-width="4.58333" stroke-linecap="butt" stroke-linejoin="miter" stroke-miterlimit="8" stroke-opacity="1" fill="#C55A11" fill-rule="evenodd" fill-opacity="1"/><path d="M815.5 1212.5 841.5 1238.5 815.5 1264.5 815.5 1251.5 711.5 1251.5 711.5 1264.5 685.5 1238.5 711.5 1212.5 711.5 1225.5 815.5 1225.5Z" stroke="#172C51" stroke-width="4.58333" stroke-linecap="butt" stroke-linejoin="miter" stroke-miterlimit="8" stroke-opacity="1" fill="#000000" fill-rule="evenodd" fill-opacity="1"/><path d="M1840.5 1254.5 1814.5 1228.5 1840.5 1202.5 1840.5 1215.5 1931.5 1215.5 1931.5 1202.5 1957.5 1228.5 1931.5 1254.5 1931.5 1241.5 1840.5 1241.5Z" stroke="#172C51" stroke-width="4.58333" stroke-linecap="butt" stroke-linejoin="miter" stroke-miterlimit="8" stroke-opacity="1" fill="#000000" fill-rule="evenodd" fill-opacity="1"/><path d="M1300.5 605 1326 579.5 1351.5 605 1338.75 605 1338.75 736 1351.5 736 1326 761.5 1300.5 736 1313.25 736 1313.25 605Z" stroke="#172C51" stroke-width="4.58333" stroke-linecap="butt" stroke-linejoin="miter" stroke-miterlimit="8" stroke-opacity="1" fill="#000000" fill-rule="evenodd" fill-opacity="1"/><path d="M1312.5 1743.5 1338.5 1717.5 1364.5 1743.5 1351.5 1743.5 1351.5 1820.5 1364.5 1820.5 1338.5 1846.5 1312.5 1820.5 1325.5 1820.5 1325.5 1743.5Z" stroke="#172C51" stroke-width="4.58333" stroke-linecap="butt" stroke-linejoin="miter" stroke-miterlimit="8" stroke-opacity="1" fill="#000000" fill-rule="evenodd" fill-opacity="1"/><text fill="#000000" fill-opacity="1" font-family="Calibri,Calibri_MSFontService,sans-serif" font-style="normal" font-variant="normal" font-weight="400" font-stretch="normal" font-size="83" text-anchor="start" direction="ltr" writing-mode="lr-tb" unicode-bidi="normal" text-decoration="none" transform="matrix(1 0 0 1 1221.74 1816)">A</text><text fill="#000000" fill-opacity="1" font-family="Calibri,Calibri_MSFontService,sans-serif" font-style="normal" font-variant="normal" font-weight="400" font-stretch="normal" font-size="83" text-anchor="start" direction="ltr" writing-mode="lr-tb" unicode-bidi="normal" text-decoration="none" transform="matrix(1 0 0 1 739.587 1193)">B</text><text fill="#000000" fill-opacity="1" font-family="Calibri,Calibri_MSFontService,sans-serif" font-style="normal" font-variant="normal" font-weight="400" font-stretch="normal" font-size="83" text-anchor="start" direction="ltr" writing-mode="lr-tb" unicode-bidi="normal" text-decoration="none" transform="matrix(1 0 0 1 1203.57 703)">C</text><text fill="#000000" fill-opacity="1" font-family="Calibri,Calibri_MSFontService,sans-serif" font-style="normal" font-variant="normal" font-weight="400" font-stretch="normal" font-size="83" text-anchor="start" direction="ltr" writing-mode="lr-tb" unicode-bidi="normal" text-decoration="none" transform="matrix(1 0 0 1 1861.49 1179)">D</text></g></g></svg>