<svg width="1311" height="1357" xmlns="http://www.w3.org/2000/svg" xmlns:xlink="http://www.w3.org/1999/xlink" xml:space="preserve" overflow="hidden"><g transform="translate(-623 -389)"><g><path d="M629.5 1043C629.5 684.291 920.291 393.5 1279 393.5 1637.71 393.5 1928.5 684.291 1928.5 1043 1928.5 1401.71 1637.71 1692.5 1279 1692.5 920.291 1692.5 629.5 1401.71 629.5 1043Z" stroke="#172C51" stroke-width="4.58333" stroke-linecap="butt" stroke-linejoin="miter" stroke-miterlimit="8" stroke-opacity="1" fill="#C55A11" fill-rule="evenodd" fill-opacity="1"/><path d="M1575.56 1624.84 1429.37 1286.04 1461.03 1261.98 1748.33 1493.51Z" stroke="#172C51" stroke-width="4.58333" stroke-linecap="butt" stroke-linejoin="miter" stroke-miterlimit="8" stroke-opacity="1" fill="#FFFFFF" fill-rule="evenodd" fill-opacity="1"/><path d="M1472.94 1294.49 1648.07 1506.76 1636.58 1516.24 1461.45 1303.97ZM1454.7 1319.19 1443.5 1270.5 1489.17 1290.75ZM1654.82 1491.54 1666.02 1540.23 1620.35 1519.98Z" fill="#000000" fill-rule="nonzero" fill-opacity="1"/><path d="M34.2531 16.4008 138.315 94.5199 129.372 106.433 25.3102 28.3134ZM22.3237 44.6975 0 0 49.1522 8.95952ZM141.301 78.1358 163.625 122.833 114.473 113.874Z" fill="#000000" fill-rule="nonzero" fill-opacity="1" transform="matrix(-1 0 0 1 1748.12 1490.5)"/><rect x="1689" y="1568" width="117" height="112" fill="#FFFFFF" fill-opacity="1"/><text fill="#000000" fill-opacity="1" font-family="Calibri,Calibri_MSFontService,sans-serif" font-style="normal" font-variant="normal" font-weight="400" font-stretch="normal" font-size="83" text-anchor="start" direction="ltr" writing-mode="lr-tb" unicode-bidi="normal" text-decoration="none" transform="matrix(1 0 0 1 1722.29 1671)">A</text><text fill="#000000" fill-opacity="1" font-family="Calibri,Calibri_MSFontService,sans-serif" font-style="normal" font-variant="normal" font-weight="400" font-stretch="normal" font-size="83" text-anchor="start" direction="ltr" writing-mode="lr-tb" unicode-bidi="normal" text-decoration="none" transform="matrix(1 0 0 1 1663.36 1333)">B</text></g></g></svg>
